<?xml version="1.0" encoding="utf-8" ?><svg xmlns="http://www.w3.org/2000/svg" xmlns:xlink="http://www.w3.org/1999/xlink" width="1392" height="512" viewBox="0 0 1392 512"><path fill="#DE6D8F" d="M1028.07 149.671C1040.74 135.939 1105.54 67.1026 1122.72 77.0321C1124.25 79.3657 1124.41 80.4738 1123.32 83.221C1120.05 91.4556 1115.54 99.714 1111.55 107.585C1105.52 119.427 1099.74 131.396 1094.22 143.485C1088.04 157.192 1082.24 174.835 1076.39 187.237C1075.55 191.017 1074.15 194.62 1072.96 198.298C1068.45 212.157 1063.97 226.447 1060.88 240.668C1059.02 249.004 1057.52 257.413 1056.37 265.873C1055.9 269.619 1054.33 287.716 1053.72 289.406C1063.18 292.548 1074.32 297.824 1083.98 301.49C1115.56 313.466 1139.33 319.68 1172.67 321.109C1176.72 323.949 1185.31 319.5 1188.78 323.465C1179.6 324.735 1171.37 324.311 1162.22 323.854C1122.21 321.859 1090.48 307.66 1054.29 293.068L1054.14 306.107C1056.64 333.652 1061.75 363.753 1087.21 379.987C1098.49 387.306 1112.22 389.84 1125.36 387.033C1123.53 389.002 1117.1 389.362 1114.49 389.399C1069 390.048 1045.23 344.566 1041.07 304.93C1040.38 298.332 1040.25 292.178 1040.15 285.538C1029.18 281.69 1016.34 275.135 1005.45 270.364C986.761 262.066 967.322 255.569 947.399 250.962C932.597 268.211 918.315 285.737 901.647 301.391C900.603 302.371 899.815 302.978 898.99 304.178L897.416 305.606L895.155 306.9L894.825 305.118L894.217 304.919C893.682 304.488 891.379 303.383 890.656 303.11C865.912 293.767 858.349 266.685 883.45 252.081C891.995 247.109 899.284 245.881 909.731 245.013C924.145 243.868 932.3 245.065 946.592 247.548C974.23 216.27 999.35 181.771 1028.07 149.671ZM950.242 248.54C971.658 253.116 990.924 260.903 1011 269.493C1020.29 273.47 1030.76 278.56 1040.11 281.992C1042.74 253.321 1046.63 229.914 1055.63 202.14C1056.36 199.88 1059.6 189.342 1060.62 187.689C1062.56 180.225 1067 169.609 1069.88 162.426C1081.26 134.038 1094.97 108.939 1110.27 82.588C1083.47 95.0267 1050.87 130.027 1031.11 151.211C1002.16 184.146 977.979 215.142 950.242 248.54ZM944.977 250.266C940.091 249.215 936.408 248.756 931.486 248.179C911.57 245.88 875.533 247.772 871.767 273.071C869.824 286.122 882.513 300.197 894.842 302.482C895.433 302.591 896.564 302.352 897.128 302.128C898.207 300.018 908.741 289.876 911.016 287.578C922.888 275.586 933.483 262.56 944.977 250.266Z"/><path fill="#DA4680" d="M1028.07 149.671C1040.74 135.939 1105.54 67.1026 1122.72 77.0321C1124.25 79.3657 1124.41 80.4738 1123.32 83.221C1120.05 91.4556 1115.54 99.714 1111.55 107.585C1105.52 119.427 1099.74 131.396 1094.22 143.485C1088.04 157.192 1082.24 174.835 1076.39 187.237C1074.88 181.1 1087.25 161.534 1084.61 159.655C1078.13 161.966 1077.49 159.038 1073.67 157.71C1069.5 162.56 1064.78 184.358 1060.62 187.689C1062.56 180.225 1067 169.609 1069.88 162.426C1081.26 134.038 1094.97 108.939 1110.27 82.588C1083.47 95.0267 1050.87 130.027 1031.11 151.211L1028.07 149.671Z"/><path fill="#A87A7B" d="M894.217 304.919C893.682 304.488 891.379 303.383 890.656 303.11C865.912 293.767 858.349 266.685 883.45 252.081C891.995 247.109 899.284 245.881 909.731 245.013L910.402 246.258C917.239 247.075 927.075 245.231 931.486 248.179C911.57 245.88 875.533 247.772 871.767 273.071C869.824 286.122 882.513 300.197 894.842 302.482C895.433 302.591 896.564 302.352 897.128 302.128L894.825 305.118L894.217 304.919Z"/><path fill="#25897A" fill-opacity="0.98431373" d="M203.872 216.117C195.67 206.61 181.902 189.843 193.433 177.411C196.062 174.587 199.688 172.9 203.54 172.709C207.752 172.534 210.71 174.493 213.686 177.17C230.542 167.221 240.503 177.086 238.33 195.046C235.728 200.759 233.028 206.204 228.816 210.843C227.971 211.775 226.629 212.836 226.69 213.983C230.108 212.086 232.048 209.517 235.16 207.241C245.152 200.764 264.478 197.155 267.685 214.195C268.706 219.618 265.754 222.185 262.335 226.216C263.232 228.803 268.21 233.232 267.896 236.444C265.327 262.715 237.193 248.266 226.156 239.217C234.498 248.514 249.118 269.772 230.296 278.294C222.737 281.717 221.16 277.604 214.789 275.602C214.669 275.564 207.479 280.631 206.168 279.956C179.853 276.095 194.419 249.423 203.789 238.413C196.971 243.865 188.744 250.368 180.231 251.969C170.05 253.882 160.928 250.996 159.655 239.533C159.203 235.467 159.731 233.619 162.587 230.476C165.845 226.892 158.511 222.438 158.679 217.916C158.426 214.982 159.327 211.324 161.274 208.957C174.611 192.737 192.067 207.008 203.872 216.117ZM171.971 205.548C158.865 211.478 159.887 218.294 168.813 227.618C166.685 231.136 163.221 232.005 163.049 236.538C162.423 253.043 181.842 251.329 191.306 245.298C200.008 239.62 205.048 234.749 212.393 227.352C202.642 218.7 188.697 204.433 175.165 205.238C174.097 205.306 173.032 205.409 171.971 205.548ZM214.367 225.113C217.27 221.952 220.452 218.621 223.083 215.263C230.148 206.895 236.65 197.948 235.807 186.305C235.21 178.064 229.879 175.466 222.214 175.57C220.565 175.592 215.576 179.262 214.176 180.338C208.418 176.052 209.236 175.264 201.955 175.457C178.258 185.193 203.172 215.352 214.367 225.113ZM216.213 227.025C223.636 234.483 233.495 244.106 243.504 247.781C253.652 250.336 268.633 246.912 263.787 232.21C263.114 230.167 259.552 228.355 257.852 226.951C259.39 223.407 262.526 224.577 264.106 220.39C268.058 209.924 257.385 204.218 248.431 204.744C234.897 207.697 225.789 217.153 216.213 227.025ZM215.853 273.633C229.539 287.351 245.302 265.269 231.817 248.711C227.452 243.351 218.274 233.992 214.296 229.065C206.107 238.124 193.704 251.388 194.5 264.208C195.244 276.179 205.423 282.267 215.187 273.009L215.853 273.633Z"/><defs><linearGradient id="gradient_0" gradientUnits="userSpaceOnUse" x1="286.9653" y1="246.75607" x2="376.47403" y2="372.85165"><stop offset="0" stop-color="#125E9B"/><stop offset="1" stop-color="#23A7C8"/></linearGradient></defs><path fill="url(#gradient_0)" d="M469.378 143.491C472.533 139.293 479.937 131.135 485.707 132.198C488.499 134.99 487.04 139.084 485.535 142.276C478.56 157.07 471.329 171.709 464.45 186.557C450.076 218.214 435.303 249.688 420.134 280.971C416.853 287.575 401.286 317.927 397.772 322.104C396.188 323.38 396.639 323.074 395.862 325.229C395.438 327.061 393.21 330.553 392.144 332.269C353.677 394.16 291.145 453.755 214.547 457.671C189.671 458.943 163.274 454.002 144.54 436.503C117.194 410.959 124.349 371.716 148.61 346.947C174.307 320.22 221.963 303.544 258.052 302.502L263.067 302.944L263.647 303.879L263.19 304.499L263.664 305.123C224.116 307.629 174.472 321.398 148.45 352.414C101.992 407.787 151.266 459.916 214.006 454.054C277.638 448.109 321.881 406.894 358.629 357.841C363.281 351.487 367.283 344.235 372.033 338.035C373.803 334.457 380.143 325.055 382.562 321.262C362.138 316.549 341.484 310.969 320.852 307.548C321.704 306.077 321.852 305.692 323.416 304.856C342.16 307.656 365.299 313.819 384.092 318.338C399.056 291.152 411.165 266.746 424.487 238.564C425.066 236.596 433.616 218.523 434.888 215.963C443.694 198.25 452.166 177.587 461.731 160.52C468.011 157.128 464.29 153.859 465.036 150.235C465.353 148.696 468.813 147.541 469.378 143.491Z"/><path fill="#3292AF" d="M424.487 238.564C425.872 243.729 379.467 334.833 372.033 338.035C373.803 334.457 380.143 325.055 382.562 321.262C362.138 316.549 341.484 310.969 320.852 307.548C321.704 306.077 321.852 305.692 323.416 304.856C342.16 307.656 365.299 313.819 384.092 318.338C399.056 291.152 411.165 266.746 424.487 238.564Z"/><path fill="#53AA9E" d="M632.364 265.798C641.026 257.959 648.213 247.122 656.139 238.407C675.963 216.611 729.149 162.567 758.758 164.083C763.023 164.301 766.668 165.852 769.545 169.051C773.552 173.505 774.063 179.813 773.669 185.516C772.308 205.222 758.656 230.505 749.615 247.831C747.551 251.786 742.364 259.167 741.827 263.301C760.635 242.022 803.947 191.977 832.94 190.27C836.058 190.087 839.65 190.405 842.082 192.576C844.063 194.344 844.772 196.968 844.857 199.54C845.656 223.616 794.964 276.544 796.618 315.75C796.904 322.521 798.897 329.216 803.857 334.045C809.259 339.304 817.255 340.452 824.484 340.312C845.08 339.915 864.69 327.623 880.497 315.36C884.562 312.207 889.58 306.922 894.217 304.919L894.825 305.118L895.155 306.9C895.088 307.13 895.069 307.253 894.905 307.464C892.356 310.737 887.571 313.874 884.242 316.408C868.104 328.693 849.349 340.807 828.756 343.131C817.495 344.402 805.272 342.498 796.267 335.196C754.479 301.308 838.288 211.892 836.319 197.731C836.128 196.356 835.471 195.252 834.277 194.507C830.235 191.981 824.29 195.059 820.467 196.698C800.296 205.342 773.984 231.669 759.389 248.021C747.242 261.631 735.885 276.231 725.05 290.908C719.05 299.035 713.398 307.739 706.922 315.466C705.106 317.633 701.953 321.631 699.128 322.283C697.436 322.119 696.139 322.026 694.772 320.936C694.304 320.562 694.147 319.771 694.032 319.192C692.479 311.347 767.455 203.207 764.517 174.031C764.324 172.109 763.606 170.676 762.058 169.485C759.532 167.541 755.851 167.372 752.802 167.75C719.466 171.887 655.605 241.486 634.448 268.702L632.364 265.798Z"/><defs><linearGradient id="gradient_1" gradientUnits="userSpaceOnUse" x1="310.11139" y1="78.214142" x2="284.86279" y2="262.69586"><stop offset="0" stop-color="#035998"/><stop offset="1" stop-color="#3C8AB7"/></linearGradient></defs><path fill="url(#gradient_1)" d="M141.169 137.315C157.577 106.408 183.721 85.9031 216.929 75.3267C256.507 62.7216 311.303 72.369 325.125 117.032C332.686 141.466 325.79 164.318 319.916 188.644C315.562 206.677 300.258 249.696 319.475 263.574C324.495 266.632 334.327 266.276 339.821 264.123C390.67 244.186 431.314 178.541 469.378 143.491C468.813 147.541 465.353 148.696 465.036 150.235C464.29 153.859 468.011 157.128 461.731 160.52L466.221 151.608C459.253 159.769 448.823 170.719 440.865 179.199C412.703 209.207 381.071 251.469 341.906 266.804C333.031 270.279 319.109 270.523 311.161 266.021C279.195 247.912 307.455 185.323 311.405 157.979C313.792 141.453 315.29 126.14 310.163 110.308C306.099 97.8516 296.507 86.0552 284.328 80.659C233.856 58.2947 165.242 93.4107 142.721 140.083L141.169 137.315Z"/><path fill="#53AA9E" d="M649.286 181.458C649.65 183.739 649.86 184.526 649.435 186.771C651.146 188.971 659.281 189.545 661.782 188.671C662.118 186.913 662.137 185.723 663.539 184.648C662.614 198.914 653.228 222.297 647.292 235.295C644.528 241.895 641.472 248.37 638.134 254.699C636.865 257.156 633.234 263.624 632.364 265.798L634.448 268.702C621.528 283.414 610.84 301.46 598.793 316.914C595.563 321.057 582.466 343.596 576.711 333.901C576.692 330.462 605.584 284.704 609.592 278.141C618.478 263.59 625.446 248.672 632.971 233.313C640.645 214.871 645.562 201.032 649.286 181.458Z"/><path fill="#DA4680" d="M1242.27 266.302C1228.54 254.362 1225.39 257.305 1222.68 237.796C1217.64 208.249 1254.52 193.531 1274.66 212.265C1297.34 233.359 1285.58 270.117 1267.22 289.661C1248.61 309.475 1218.09 322.534 1191.19 323.528C1190.39 323.552 1189.58 323.531 1188.78 323.465C1185.31 319.5 1176.72 323.949 1172.67 321.109C1183.39 320.778 1194.11 320.222 1204.67 318.504C1242.42 312.329 1283.65 283.871 1283.7 242.156C1283.72 223.866 1269.67 205.281 1250.27 207.061C1234.05 208.549 1223.24 221.123 1225.57 237.338C1229.01 238.031 1233.67 230.825 1240.06 239.396C1240.86 240.479 1241.25 241.909 1242.39 242.294C1246.07 237.89 1252.18 231.148 1257.96 238.751C1266.24 249.632 1248.73 259.539 1242.27 266.302Z"/><path fill="#53AA9E" d="M649.286 181.458C651.064 163.747 650.952 141.519 627.529 139.773C603.523 137.983 577.125 153.212 559.076 168.038C538.974 185.452 517.613 209.617 513.308 236.699C512.451 242.086 514.293 249.497 517.836 253.656C522.061 258.615 526.523 258.546 532.521 258.403L532.824 258.864C521.72 260.948 513.855 255.574 512.166 244.249C509.487 226.288 520.226 208.652 530.032 194.41C549.62 167.333 580.73 143.444 613.953 137.246C636.656 133.01 660.5 141.002 663.796 165.939C664.3 169.755 664.912 181.193 663.539 184.648C662.137 185.723 662.118 186.913 661.782 188.671C659.281 189.545 651.146 188.971 649.435 186.771C649.86 184.526 649.65 183.739 649.286 181.458Z"/><path fill="#3292AF" fill-opacity="0.98431373" d="M397.772 322.104C433.382 332.572 482.965 341.305 517.007 322.357C527.182 316.694 540.384 305.649 544.193 294.01C544.734 292.359 545.646 287.714 546.034 285.815L546.352 285.765C546.247 296.346 539.89 306.463 532.543 313.683C514.536 331.379 490.26 336.731 465.828 336.337C445.523 336.009 415.513 331.157 395.862 325.229C396.639 323.074 396.188 323.38 397.772 322.104Z"/><path fill="#2078A0" d="M258.052 302.502C273.684 300.679 308.096 301.338 323.416 304.856C321.852 305.692 321.704 306.077 320.852 307.548C301.711 305.187 283.026 303.358 263.664 305.123L263.19 304.499L263.647 303.879L263.067 302.944L258.052 302.502Z"/><path fill="#144C74" fill-opacity="0.97254902" d="M141.169 137.315L142.721 140.083C133.649 159.014 129.379 178.081 143.893 195.27L143.774 195.921C140.272 193.709 136.704 187.768 135.416 183.878C130.182 168.071 134.383 151.716 141.169 137.315Z"/><path fill="#DA4680" d="M1235.27 284.434C1237.59 283.437 1240.28 284.518 1241.27 286.847C1242.26 289.175 1241.17 291.863 1238.84 292.842C1236.52 293.816 1233.85 292.731 1232.87 290.415C1231.88 288.1 1232.96 285.425 1235.27 284.434Z"/><defs><linearGradient id="gradient_2" gradientUnits="userSpaceOnUse" x1="237.20311" y1="202.11914" x2="233.30673" y2="200.71436"><stop offset="0" stop-color="#FAFCFF" stop-opacity="0"/><stop offset="1" stop-color="#D9FAF8" stop-opacity="0.06666667"/></linearGradient></defs><path fill="url(#gradient_2)" d="M238.33 195.046L239.197 195.155L239.552 193.928C240.246 196.295 236.787 205.213 235.16 207.241C232.048 209.517 230.108 212.086 226.69 213.983C226.629 212.836 227.971 211.775 228.816 210.843C233.028 206.204 235.728 200.759 238.33 195.046Z"/><path fill="#DA4680" d="M1212.91 297.334C1214.66 296.197 1217.01 296.673 1218.18 298.404C1219.35 300.136 1218.92 302.487 1217.22 303.695C1216.08 304.499 1214.6 304.626 1213.34 304.027C1212.09 303.428 1211.25 302.196 1211.16 300.808C1211.07 299.419 1211.74 298.09 1212.91 297.334Z"/><path fill="#A87A7B" fill-opacity="0.83529413" d="M898.99 304.178C907.84 306.713 913.485 307.041 922.747 306.366C925.249 306.183 930.458 305.641 932.748 305.955C927.921 310.256 903.736 307.039 897.416 305.606L898.99 304.178Z"/><path fill="#DA4680" d="M1192.4 303.196C1194.27 302.941 1196.01 304.199 1196.36 306.056C1196.71 307.913 1195.54 309.718 1193.7 310.159C1192.43 310.464 1191.09 310.043 1190.23 309.064C1189.36 308.084 1189.1 306.706 1189.55 305.478C1190.01 304.25 1191.1 303.373 1192.4 303.196Z"/></svg>